<svg width="60" height="60" viewBox="0 0 60 60"
                            fill="none" xmlns="http://www.w3.org/2000/svg">
                            <rect x="13.7288" y="20.8477" width="6.1017" height="11.6949" fill="#DADDF9"></rect>
                            <rect x="21.8645" y="20.8477" width="6.10169" height="11.6949" fill="#DADDF9"></rect>
                            <rect x="30" y="20.8477" width="6.1017" height="11.6949" fill="#DADDF9"></rect>
                            <rect x="38.1355" y="20.8477" width="6.10169" height="11.6949" fill="#DADDF9"></rect>
                            <path
                                d="M22.5425 33.5584H29.3221V21.355H22.5425V33.5584ZM23.8984 22.7109H27.9662V32.2024H23.8984V22.7109Z"
                                fill="#5E65DC"></path>
                            <path
                                d="M30.6782 33.5584H37.4579V21.355H30.6782V33.5584ZM32.0342 22.7109H36.102V32.2024H32.0342V22.7109Z"
                                fill="#5E65DC"></path>
                            <path
                                d="M14.407 33.5584H21.1866V21.355H14.407V33.5584ZM15.7629 22.7109H19.8307V32.2024H15.7629V22.7109Z"
                                fill="#5E65DC"></path>
                            <path
                                d="M38.8137 33.5584H45.5934V21.355H38.8137V33.5584ZM40.1697 22.7109H44.2374V32.2024H40.1697V22.7109Z"
                                fill="#5E65DC"></path>
                            <path
                                d="M49.6611 25.4237C50.0355 25.4237 50.3391 25.1201 50.3391 24.7457V19.322C50.3391 18.1987 49.4285 17.2881 48.3052 17.2881H11.695C10.5717 17.2881 9.66113 18.1987 9.66113 19.322V24.7457C9.66113 25.1201 9.96469 25.4237 10.3391 25.4237C10.7135 25.4237 11.0171 25.7272 11.0171 26.1016C11.0171 26.4761 10.7135 26.7796 10.3391 26.7796C9.96469 26.7796 9.66113 27.0832 9.66113 27.4576V36.9491C9.66113 37.3235 9.96469 37.6271 10.3391 37.6271H13.051V42.3728C13.051 42.7472 13.3545 43.0508 13.7289 43.0508H24.5764C24.9508 43.0508 25.2544 42.7472 25.2544 42.3728V41.0169C25.2544 40.6425 25.5579 40.3389 25.9323 40.3389C26.1152 40.3383 26.2902 40.4134 26.4157 40.5464C26.5415 40.6705 26.6116 40.8402 26.6103 41.0169V42.3728C26.6103 42.7472 26.9138 43.0508 27.2883 43.0508H46.2713C46.6457 43.0508 46.9493 42.7472 46.9493 42.3728V37.6271H49.6611C50.0355 37.6271 50.3391 37.3235 50.3391 36.9491V27.4576C50.3391 27.0832 50.0355 26.7796 49.6611 26.7796C49.2867 26.7796 48.9832 26.4761 48.9832 26.1016C48.9832 25.7272 49.2867 25.4237 49.6611 25.4237ZM45.5933 41.6949H44.2374V38.983H42.8815V41.6949H41.5255V38.983H40.1696V41.6949H38.8137V38.983H37.4577V41.6949H36.1018V38.983H34.7459V41.6949H33.3899V38.983H32.034V41.6949H30.6781V38.983H29.3221V41.6949H27.9662V41.0169C27.9614 39.8956 27.0536 38.9878 25.9323 38.983C24.809 38.983 23.8984 39.8936 23.8984 41.0169V41.6949H22.5425V38.983H21.1866V41.6949H19.8306V38.983H18.4747V41.6949H17.1188V38.983H15.7628V41.6949H14.4069V37.6271H45.5933V41.6949ZM48.9832 24.1837C47.9239 24.5575 47.3682 25.7193 47.7421 26.7785C47.9468 27.3586 48.4031 27.8149 48.9832 28.0196V36.2711H11.0171V28.0196C12.0763 27.6458 12.632 26.484 12.2582 25.4248C12.0534 24.8447 11.5971 24.3884 11.0171 24.1837V19.322C11.0171 18.9476 11.3206 18.644 11.695 18.644H48.3052C48.6796 18.644 48.9832 18.9476 48.9832 19.322V24.1837Z"
                                fill="#5E65DC"></path>
                        </svg>