<svg width="60" height="60" viewBox="0 0 60 60"
                            fill="none" xmlns="http://www.w3.org/2000/svg">
                            <rect x="21.356" y="20.8477" width="22.3729" height="22.8814" rx="3" fill="#DADDF9"></rect>
                            <path fill-rule="evenodd" clip-rule="evenodd"
                                d="M19.2411 12.0534C19.2411 11.7148 19.515 11.4409 19.8536 11.4409C20.1922 11.4409 20.4661 11.7147 20.4661 12.0534V14.9078H24.4414V12.0534C24.4414 11.7148 24.7153 11.4409 25.0539 11.4409C25.3925 11.4409 25.6664 11.7147 25.6664 12.0534V14.9078H29.6417V12.0534C29.6417 11.7148 29.9156 11.4409 30.2542 11.4409C30.5928 11.4409 30.8667 11.7147 30.8667 12.0534V14.9078H34.842V12.0534C34.842 11.7148 35.1159 11.4409 35.4545 11.4409C35.7931 11.4409 36.067 11.7147 36.067 12.0534V14.9078H40.0423V12.0534C40.0423 11.7148 40.3162 11.4409 40.6548 11.4409C40.9935 11.4409 41.2673 11.7147 41.2673 12.0533V14.9077H42.3882C44.1599 14.9077 45.6009 16.3488 45.6009 18.1204V19.2414H48.4553C48.794 19.2414 49.0678 19.5152 49.0678 19.8538C49.0678 20.1925 48.7939 20.4663 48.4553 20.4663H45.6009V24.4417H48.4553C48.794 24.4417 49.0678 24.7155 49.0678 25.0541C49.0678 25.3928 48.7939 25.6666 48.4553 25.6666H45.6009V29.642H48.4553C48.794 29.642 49.0678 29.9158 49.0678 30.2544C49.0678 30.5931 48.7939 30.8669 48.4553 30.8669H45.6009V34.8423H48.4553C48.794 34.8423 49.0678 35.116 49.0678 35.4546C49.0678 35.7933 48.7939 36.0671 48.4553 36.0671H45.6009V40.0425H48.4553C48.7939 40.0425 49.0678 40.3163 49.0678 40.655C49.0678 40.9937 48.7939 41.2675 48.4553 41.2675H45.6009V42.3885C45.6009 44.1602 44.1598 45.6011 42.3882 45.6011H41.2673V48.4555C41.2673 48.7942 40.9935 49.068 40.6548 49.068C40.3162 49.068 40.0423 48.7942 40.0423 48.4555V45.6011H36.067V48.4555C36.067 48.7942 35.7932 49.068 35.4545 49.068C35.1159 49.068 34.842 48.7942 34.842 48.4555V45.6011H30.8667V48.4555C30.8667 48.7942 30.5929 49.068 30.2542 49.068C29.9156 49.068 29.6417 48.7942 29.6417 48.4555V45.6011H25.6664V48.4555C25.6664 48.7942 25.3926 49.068 25.0539 49.068C24.7153 49.068 24.4414 48.7942 24.4414 48.4555V45.6011H20.4661V48.4555C20.4661 48.7942 20.1923 49.068 19.8536 49.068C19.515 49.068 19.2411 48.7942 19.2411 48.4555V45.6011H18.1202C16.3486 45.6011 14.9076 44.1601 14.9076 42.3885V41.2676H12.0532C11.7145 41.2676 11.4407 40.9937 11.4407 40.6551C11.4407 40.3164 11.7145 40.0426 12.0532 40.0426H14.9076V36.0673H12.0532C11.7145 36.0673 11.4407 35.7934 11.4407 35.4548C11.4407 35.1161 11.7145 34.8423 12.0532 34.8423H14.9076V30.867H12.0532C11.7145 30.867 11.4407 30.5931 11.4407 30.2545C11.4407 29.9158 11.7145 29.642 12.0532 29.642H14.9076V25.6667H12.0532C11.7145 25.6667 11.4407 25.3928 11.4407 25.0542C11.4407 24.7155 11.7145 24.4417 12.0532 24.4417H14.9076V20.4664H12.0532C11.7145 20.4664 11.4407 20.1925 11.4407 19.8539C11.4407 19.5152 11.7145 19.2414 12.0531 19.2414H14.9075V18.1205C14.9075 16.3488 16.3485 14.9078 18.1201 14.9078H19.2411V12.0534ZM18.1201 16.1327C17.0242 16.1327 16.1325 17.0244 16.1325 18.1204V42.3885C16.1325 43.4844 17.0242 44.3761 18.1201 44.3761H42.3882C43.4842 44.3761 44.3759 43.4844 44.3759 42.3885V18.1204C44.3759 17.0244 43.4842 16.1327 42.3882 16.1327H18.1201Z"
                                fill="#5E65DC"></path>
                            <path fill-rule="evenodd" clip-rule="evenodd"
                                d="M18.3743 18.987C18.3743 18.6484 18.6481 18.3745 18.9868 18.3745H41.5214C41.86 18.3745 42.1339 18.6484 42.1339 18.987V41.5216C42.1339 41.8603 41.86 42.1341 41.5214 42.1341H18.9868C18.6481 42.1341 18.3743 41.8603 18.3743 41.5216V18.987ZM40.909 19.5995H19.5993V40.9092H40.909V19.5995Z"
                                fill="#5E65DC"></path>
                            <path
                                d="M26.7267 31.1514C26.6903 31.9756 26.4586 32.5996 26.0316 33.0234C25.6045 33.4471 25.002 33.659 24.2241 33.659C23.4064 33.659 22.7791 33.3908 22.3421 32.8545C21.9085 32.315 21.6917 31.5469 21.6917 30.5505V29.334C21.6917 28.3408 21.9168 27.5761 22.367 27.0399C22.8172 26.5003 23.4428 26.2305 24.244 26.2305C25.0318 26.2305 25.6293 26.4506 26.0365 26.8909C26.447 27.3312 26.6804 27.9635 26.7367 28.7877H25.2718C25.2586 28.2779 25.1791 27.927 25.0335 27.735C24.8911 27.5397 24.628 27.4421 24.244 27.4421C23.8533 27.4421 23.5769 27.5794 23.4147 27.8542C23.2525 28.1257 23.1664 28.5742 23.1565 29.1999V30.5654C23.1565 31.2838 23.2359 31.777 23.3948 32.0452C23.5571 32.3133 23.8335 32.4474 24.2241 32.4474C24.6081 32.4474 24.8729 32.3547 25.0186 32.1693C25.1642 31.9806 25.247 31.6413 25.2669 31.1514H26.7267Z"
                                fill="#5E65DC"></path>
                            <path
                                d="M29.0854 31.0173V33.5597H27.6255V26.3298H30.0884C30.8035 26.3298 31.3729 26.5516 31.7966 26.9952C32.2236 27.4388 32.4371 28.0148 32.4371 28.7232C32.4371 29.4316 32.2269 29.9911 31.8065 30.4016C31.3861 30.812 30.8035 31.0173 30.0586 31.0173H29.0854ZM29.0854 29.8007H30.0884C30.3665 29.8007 30.5817 29.7097 30.734 29.5276C30.8862 29.3455 30.9624 29.0807 30.9624 28.7331C30.9624 28.3723 30.8846 28.0859 30.729 27.8741C30.5734 27.6589 30.3648 27.5497 30.1033 27.5463H29.0854V29.8007Z"
                                fill="#5E65DC"></path>
                            <path
                                d="M38.1178 26.3298V31.3351C38.1111 32.0865 37.9042 32.6625 37.4971 33.0631C37.0899 33.4603 36.5056 33.659 35.7442 33.659C34.9696 33.659 34.377 33.457 33.9665 33.0532C33.5594 32.6493 33.3558 32.065 33.3558 31.3003V26.3298H34.8256V31.3053C34.8256 31.7158 34.8918 32.0087 35.0242 32.1842C35.1566 32.3596 35.3966 32.4474 35.7442 32.4474C36.0918 32.4474 36.3302 32.3613 36.4593 32.1892C36.5884 32.0137 36.6546 31.7274 36.6579 31.3301V26.3298H38.1178Z"
                                fill="#5E65DC"></path>
                        </svg>