<svg width="60" height="60" viewBox="0 0 60 60"
                            fill="none" xmlns="http://www.w3.org/2000/svg">
                            <rect x="23.8984" y="17.7969" width="23.3898" height="23.8983" rx="3" fill="#DADDF9"></rect>
                            <path
                                d="M41.695 49.3221H18.8136C17.4102 49.3205 16.2728 48.1832 16.2712 46.7797V13.7289C16.2728 12.3254 17.4102 11.1881 18.8136 11.1865H41.695C43.0984 11.1881 44.2358 12.3254 44.2373 13.7289V46.7797C44.2358 48.1832 43.0984 49.3205 41.695 49.3221ZM18.8136 12.4577C18.1118 12.4584 17.5431 13.0271 17.5424 13.7289V46.7797C17.5431 47.4815 18.1118 48.0502 18.8136 48.0509H41.695C42.3967 48.0502 42.9655 47.4815 42.9662 46.7797V13.7289C42.9655 13.0271 42.3967 12.4584 41.695 12.4577H18.8136Z"
                                fill="#5E65DC"></path>
                            <path
                                d="M34.7033 16.2713H23.2626C22.5609 16.2706 21.9922 15.7018 21.9915 15.0001V11.8221C21.9915 11.4711 22.276 11.1865 22.627 11.1865H35.3389C35.6899 11.1865 35.9745 11.4711 35.9745 11.8221V15.0001C35.9738 15.7018 35.4051 16.2706 34.7033 16.2713ZM23.2626 12.4577V15.0001H34.7033V12.4577H23.2626Z"
                                fill="#5E65DC"></path>
                            <path
                                d="M30.89 16.2713C30.539 16.2713 30.2544 15.9867 30.2544 15.6357V11.8221C30.2544 11.4711 30.539 11.1865 30.89 11.1865C31.241 11.1865 31.5256 11.4711 31.5256 11.8221V15.6357C31.5256 15.9867 31.241 16.2713 30.89 16.2713Z"
                                fill="#5E65DC"></path>
                            <path
                                d="M38.5171 44.8728H21.9917C20.2374 44.8707 18.8158 43.4491 18.8137 41.6948V23.8982C18.8158 22.1439 20.2374 20.7223 21.9917 20.7202H38.5171C40.2714 20.7223 41.693 22.1439 41.6951 23.8982V41.6948C41.693 43.4491 40.2714 44.8707 38.5171 44.8728ZM21.9917 21.9914C20.9391 21.9926 20.0861 22.8456 20.0849 23.8982V41.6948C20.0861 42.7474 20.9391 43.6004 21.9917 43.6016H38.5171C39.5697 43.6004 40.4227 42.7474 40.4239 41.6948V23.8982C40.4227 22.8456 39.5697 21.9926 38.5171 21.9914H21.9917Z"
                                fill="#5E65DC"></path>
                            <path
                                d="M23.8984 33.4323C22.8701 33.4328 21.9428 32.8135 21.5494 31.8634C21.1559 30.9133 21.3739 29.8197 22.1015 29.0931C23.1066 28.1317 24.6903 28.1317 25.6953 29.0931C26.1739 29.5684 26.4423 30.2155 26.4408 30.89C26.4408 31.241 26.1562 31.5256 25.8052 31.5256C25.4542 31.5256 25.1696 31.241 25.1696 30.89C25.1702 30.5528 25.0359 30.2294 24.7966 29.9918C24.2944 29.5108 23.5024 29.5108 23.0003 29.9918C22.6363 30.355 22.5271 30.9018 22.7238 31.3769C22.9205 31.852 23.3842 32.1616 23.8984 32.1612C24.2495 32.1612 24.534 32.4457 24.534 32.7968C24.534 33.1478 24.2495 33.4323 23.8984 33.4323Z"
                                fill="#5E65DC"></path>
                            <path
                                d="M23.8983 37.2459C22.4949 37.2443 21.3575 36.107 21.356 34.7035C21.356 34.3525 21.6405 34.0679 21.9916 34.0679C22.3426 34.0679 22.6271 34.3525 22.6271 34.7035C22.6277 35.4047 23.1964 35.9728 23.8977 35.9727C24.5989 35.9725 25.1673 35.4041 25.1675 34.7028C25.1677 34.0016 24.5996 33.4329 23.8983 33.4323C23.5473 33.4323 23.2627 33.1478 23.2627 32.7967C23.2627 32.4457 23.5473 32.1611 23.8983 32.1611C25.3024 32.1611 26.4407 33.2994 26.4407 34.7035C26.4407 36.1076 25.3024 37.2459 23.8983 37.2459Z"
                                fill="#5E65DC"></path>
                            <path
                                d="M30.2544 33.4323C29.226 33.4328 28.2988 32.8135 27.9053 31.8634C27.5119 30.9133 27.7299 29.8197 28.4575 29.0931C29.4625 28.1317 31.0462 28.1317 32.0513 29.0931C32.5298 29.5684 32.7983 30.2155 32.7968 30.89C32.7968 31.241 32.5122 31.5256 32.1612 31.5256C31.8101 31.5256 31.5256 31.241 31.5256 30.89C31.5261 30.5528 31.3918 30.2294 31.1525 29.9918C30.6504 29.5108 29.8584 29.5108 29.3562 29.9918C28.9922 30.355 28.8831 30.9018 29.0798 31.3769C29.2765 31.852 29.7402 32.1616 30.2544 32.1612C30.6054 32.1612 30.89 32.4457 30.89 32.7968C30.89 33.1478 30.6054 33.4323 30.2544 33.4323Z"
                                fill="#5E65DC"></path>
                            <path
                                d="M30.2543 37.2459C28.8508 37.2443 27.7135 36.107 27.7119 34.7035C27.7119 34.3525 27.9965 34.0679 28.3475 34.0679C28.6985 34.0679 28.9831 34.3525 28.9831 34.7035C28.9837 35.4047 29.5524 35.9728 30.2536 35.9727C30.9548 35.9725 31.5233 35.4041 31.5234 34.7028C31.5236 34.0016 30.9555 33.4329 30.2543 33.4323C29.9033 33.4323 29.6187 33.1478 29.6187 32.7967C29.6187 32.4457 29.9033 32.1611 30.2543 32.1611C31.6584 32.1611 32.7967 33.2994 32.7967 34.7035C32.7967 36.1076 31.6584 37.2459 30.2543 37.2459Z"
                                fill="#5E65DC"></path>
                            <path
                                d="M36.6102 37.246H34.7035C34.3524 37.246 34.0679 36.9614 34.0679 36.6104V28.9832C34.0679 28.6322 34.3524 28.3477 34.7035 28.3477H36.6102C38.0137 28.3492 39.151 29.4866 39.1526 30.89V34.7036C39.151 36.1071 38.0137 37.2444 36.6102 37.246ZM35.3391 35.9748H36.6102C37.312 35.9741 37.8807 35.4054 37.8814 34.7036V30.89C37.8807 30.1883 37.312 29.6195 36.6102 29.6188H35.3391V35.9748Z"
                                fill="#5E65DC"></path>
                        </svg>