<svg
                            width="24" height="24" viewBox="0 0 24 24" fill="none" xmlns="http://www.w3.org/2000/svg"
                            class="_iconPlus_i7vp8_231">
                            <path
                                d="M17.2266 11.2266H12.7734V6.77336C12.7734 6.34628 12.4271 6 12 6C11.5729 6 11.2266 6.34624 11.2266 6.77336V11.2266H6.77336C6.34628 11.2266 6 11.5729 6 12C6 12.4271 6.34624 12.7734 6.77336 12.7734H11.2266V17.2266C11.2266 17.6537 11.5729 18 12 18C12.4271 18 12.7734 17.6538 12.7734 17.2266V12.7734H17.2266C17.6537 12.7734 18 12.4271 18 12C18 11.5729 17.6537 11.2266 17.2266 11.2266Z"
                                fill="#2D34B2"></path>
                        </svg>