                        <svg width="24" height="24" viewBox="0 0 24 24" fill="none"
                            xmlns="http://www.w3.org/2000/svg" class="_invisible_1y5a3_138">
                            <path
                                d="M12 2C6.47305 2 2 6.47254 2 12C2 17.527 6.47254 22 12 22C17.527 22 22 17.5275 22 12C22 6.47305 17.5275 2 12 2ZM12 20.6667C7.22121 20.6667 3.33332 16.7788 3.33332 12C3.33332 7.22117 7.22121 3.33332 12 3.33332C16.7788 3.33332 20.6667 7.22121 20.6667 12C20.6667 16.7788 16.7788 20.6667 12 20.6667Z"
                                fill="#D33B3B"></path>
                            <path
                                d="M12.7734 11.2266H17.2266C17.6537 11.2266 18 11.5728 18 11.9999C18 12.427 17.6537 12.7733 17.2266 12.7733H12.7734H11.2266H6.77336C6.34624 12.7733 6 12.427 6 11.9999C6 11.5728 6.34628 11.2266 6.77336 11.2266H11.2266H12.7734Z"
                                fill="#D33B3B"></path>
                        </svg>